<svg xmlns="http://www.w3.org/2000/svg" xmlns:xlink="http://www.w3.org/1999/xlink" width="500" zoomAndPan="magnify" viewBox="0 0 375 374.999991" height="500" preserveAspectRatio="xMidYMid meet" version="1.0"><defs><clipPath id="80d62e00bd"><path d="M 32 28 L 342.964844 28 L 342.964844 347.425781 L 32 347.425781 Z M 32 28 " clip-rule="nonzero"/></clipPath></defs><path fill="#25523b" d="M 237.210938 331.929688 C 237.210938 336.382812 233.589844 340.003906 229.136719 340.003906 C 224.679688 340.003906 221.054688 336.382812 221.054688 331.929688 C 221.054688 327.476562 224.683594 323.847656 229.136719 323.847656 C 233.589844 323.847656 237.210938 327.476562 237.210938 331.929688 Z M 163.839844 330 L 122.097656 330 L 122.261719 326.628906 C 123.011719 311.425781 126.980469 296.617188 133.953125 283.085938 L 135.496094 280.089844 L 171.636719 300.957031 L 170.335938 303.648438 C 166.789062 310.976562 164.664062 318.902344 164.058594 327.027344 Z M 180.292969 236.75 C 193.824219 229.78125 208.632812 225.804688 223.835938 225.066406 L 227.207031 224.902344 L 227.207031 266.632812 L 224.234375 266.855469 C 216.105469 267.464844 208.183594 269.582031 200.847656 273.128906 L 198.160156 274.429688 L 177.296875 238.292969 Z M 287.148438 242.058594 C 299.871094 250.300781 310.769531 261.1875 318.996094 273.921875 L 320.832031 276.761719 L 284.699219 297.621094 L 283.019531 295.164062 C 278.425781 288.457031 272.609375 282.632812 265.898438 278.042969 L 263.441406 276.363281 L 284.308594 240.21875 Z M 186.59375 164.484375 L 192.601562 112.996094 C 192.664062 112.449219 192.492188 111.902344 192.125 111.492188 C 191.761719 111.082031 191.238281 110.84375 190.691406 110.84375 L 148.316406 110.84375 L 203.980469 39.574219 L 201.050781 89.878906 C 201.019531 90.402344 201.210938 90.925781 201.570312 91.304688 C 201.9375 91.691406 202.441406 91.914062 202.976562 91.914062 L 245.265625 91.914062 Z M 186.59375 164.484375 " fill-opacity="1" fill-rule="evenodd"/><g clip-path="url(#80d62e00bd)"><path fill="#f0f6f8" d="M 56.109375 234.125 L 41.640625 252.652344 C 40.628906 253.949219 39.113281 254.625 37.585938 254.625 C 36.480469 254.625 35.371094 254.269531 34.421875 253.539062 C 32.1875 251.789062 31.796875 248.558594 33.539062 246.320312 L 48.007812 227.796875 C 49.757812 225.5625 52.980469 225.164062 55.222656 226.910156 C 57.460938 228.660156 57.859375 231.890625 56.109375 234.125 Z M 97.523438 292.675781 L 83.058594 311.199219 C 82.042969 312.496094 80.527344 313.171875 79.003906 313.171875 C 77.894531 313.171875 76.78125 312.816406 75.84375 312.085938 C 73.609375 310.335938 73.207031 307.109375 74.957031 304.871094 L 89.421875 286.34375 C 91.167969 284.109375 94.398438 283.710938 96.636719 285.460938 C 98.871094 287.207031 99.269531 290.441406 97.523438 292.675781 Z M 74.578125 263.054688 C 73.472656 263.054688 72.355469 262.695312 71.414062 261.960938 C 69.179688 260.210938 68.78125 256.980469 70.527344 254.746094 L 85 236.222656 C 86.742188 233.984375 89.972656 233.589844 92.207031 235.332031 C 94.453125 237.082031 94.847656 240.3125 93.101562 242.550781 L 78.632812 261.074219 C 77.613281 262.375 76.105469 263.054688 74.578125 263.054688 Z M 83.265625 199.359375 L 68.796875 217.882812 C 67.777344 219.179688 66.265625 219.855469 64.738281 219.855469 C 63.636719 219.855469 62.523438 219.503906 61.578125 218.769531 C 59.339844 217.019531 58.945312 213.792969 60.691406 211.554688 L 75.160156 193.027344 C 76.910156 190.792969 80.132812 190.394531 82.378906 192.144531 C 84.613281 193.890625 85.011719 197.125 83.265625 199.359375 Z M 124.675781 257.90625 L 110.207031 276.429688 C 109.199219 277.730469 107.679688 278.402344 106.152344 278.402344 C 105.046875 278.402344 103.9375 278.050781 103 277.316406 C 100.753906 275.570312 100.359375 272.335938 102.105469 270.101562 L 116.574219 251.578125 C 118.320312 249.34375 121.550781 248.941406 123.789062 250.691406 C 126.027344 252.4375 126.425781 255.671875 124.675781 257.90625 Z M 97.683594 219.980469 L 112.152344 201.453125 C 113.894531 199.214844 117.125 198.816406 119.363281 200.566406 C 121.605469 202.3125 121.996094 205.546875 120.25 207.78125 L 105.785156 226.304688 C 104.769531 227.601562 103.261719 228.285156 101.730469 228.285156 C 100.628906 228.285156 99.507812 227.925781 98.570312 227.195312 C 96.332031 225.445312 95.933594 222.214844 97.683594 219.980469 Z M 87.847656 176.785156 L 102.316406 158.261719 C 104.058594 156.027344 107.289062 155.625 109.523438 157.375 C 111.769531 159.125 112.164062 162.355469 110.410156 164.589844 L 95.949219 183.117188 C 94.933594 184.414062 93.421875 185.085938 91.894531 185.085938 C 90.789062 185.085938 89.675781 184.734375 88.730469 184 C 86.496094 182.257812 86.097656 179.023438 87.847656 176.785156 Z M 129.257812 235.332031 L 143.726562 216.808594 C 145.476562 214.574219 148.699219 214.175781 150.945312 215.921875 C 153.179688 217.671875 153.578125 220.902344 151.828125 223.140625 L 137.359375 241.664062 C 136.351562 242.960938 134.835938 243.640625 133.304688 243.640625 C 132.199219 243.640625 131.089844 243.28125 130.152344 242.550781 C 127.90625 240.800781 127.511719 237.570312 129.257812 235.332031 Z M 128.882812 193.519531 C 127.78125 193.519531 126.660156 193.160156 125.722656 192.425781 C 123.488281 190.679688 123.089844 187.453125 124.835938 185.210938 L 139.300781 166.683594 C 141.046875 164.449219 144.28125 164.050781 146.515625 165.800781 C 148.75 167.546875 149.148438 170.78125 147.402344 173.015625 L 132.9375 191.539062 C 131.921875 192.835938 130.414062 193.519531 128.882812 193.519531 Z M 115 142.019531 L 129.460938 123.492188 C 131.210938 121.257812 134.441406 120.863281 136.679688 122.605469 C 138.921875 124.355469 139.3125 127.589844 137.566406 129.824219 L 123.101562 148.347656 C 122.089844 149.648438 120.578125 150.324219 119.050781 150.324219 C 117.941406 150.324219 116.824219 149.96875 115.886719 149.238281 C 113.648438 147.484375 113.25 144.253906 115 142.019531 Z M 156.410156 200.566406 L 170.878906 182.050781 C 172.621094 179.808594 175.855469 179.40625 178.089844 181.15625 C 180.332031 182.910156 180.730469 186.136719 178.984375 188.371094 L 164.515625 206.894531 C 163.503906 208.191406 161.988281 208.875 160.457031 208.875 C 159.355469 208.875 158.242188 208.511719 157.296875 207.78125 C 155.0625 206.035156 154.664062 202.804688 156.410156 200.566406 Z M 200.171875 49.664062 L 197.839844 89.691406 C 197.757812 91.101562 198.265625 92.488281 199.234375 93.511719 C 200.207031 94.542969 201.554688 95.128906 202.972656 95.128906 L 238.535156 95.128906 L 191.070312 153.835938 L 195.789062 113.367188 C 195.960938 111.910156 195.503906 110.453125 194.527344 109.359375 C 193.554688 108.261719 192.15625 107.628906 190.6875 107.628906 L 154.902344 107.628906 Z M 144.363281 117.910156 L 184.917969 117.910156 L 178.804688 170.277344 C 178.542969 172.550781 179.804688 174.730469 181.914062 175.617188 C 182.5625 175.886719 183.238281 176.015625 183.90625 176.015625 C 185.421875 176.015625 186.90625 175.339844 187.90625 174.105469 L 253.300781 93.21875 C 254.539062 91.675781 254.792969 89.5625 253.933594 87.769531 C 253.089844 85.980469 251.28125 84.84375 249.296875 84.84375 L 208.425781 84.84375 L 211.394531 33.8125 C 211.523438 31.566406 210.179688 29.5 208.078125 28.707031 C 205.972656 27.910156 203.59375 28.578125 202.210938 30.351562 L 140.3125 109.609375 C 139.101562 111.15625 138.882812 113.257812 139.746094 115.023438 C 140.601562 116.792969 142.394531 117.910156 144.363281 117.910156 Z M 156.035156 158.75 C 157.566406 158.75 159.078125 158.070312 160.09375 156.769531 L 174.558594 138.246094 C 176.300781 136.011719 175.90625 132.789062 173.671875 131.03125 C 171.433594 129.285156 168.199219 129.683594 166.453125 131.925781 L 151.988281 150.445312 C 150.242188 152.679688 150.640625 155.910156 152.875 157.660156 C 153.816406 158.390625 154.933594 158.75 156.035156 158.75 Z M 229.132812 336.792969 C 226.457031 336.792969 224.269531 334.613281 224.269531 331.929688 C 224.269531 329.25 226.457031 327.0625 229.132812 327.0625 C 231.8125 327.0625 233.996094 329.25 233.996094 331.929688 C 233.996094 334.613281 231.816406 336.792969 229.132812 336.792969 Z M 249.683594 304.109375 L 235.570312 318.222656 C 233.609375 317.300781 231.433594 316.78125 229.132812 316.78125 C 220.777344 316.78125 213.988281 323.582031 213.988281 331.929688 C 213.988281 340.28125 220.777344 347.070312 229.132812 347.070312 C 237.484375 347.070312 244.277344 340.28125 244.277344 331.929688 C 244.277344 329.625 243.757812 327.449219 242.839844 325.496094 L 256.945312 311.382812 C 258.960938 309.375 258.960938 306.125 256.945312 304.109375 C 254.945312 302.105469 251.6875 302.105469 249.683594 304.109375 Z M 297.410156 326.785156 C 296.761719 318.054688 294.460938 309.765625 290.824219 302.246094 L 321.472656 284.558594 C 328.035156 297.332031 332.054688 311.636719 332.78125 326.785156 Z M 267.710938 275.390625 C 274.753906 280.207031 280.851562 286.316406 285.667969 293.347656 L 316.300781 275.667969 C 308.316406 263.3125 297.746094 252.753906 285.398438 244.753906 Z M 172.59375 293.347656 L 141.960938 275.667969 C 149.960938 263.3125 160.515625 252.753906 172.867188 244.753906 L 190.554688 275.390625 C 183.511719 280.207031 177.414062 286.316406 172.59375 293.347656 Z M 160.855469 326.785156 C 161.507812 318.054688 163.804688 309.765625 167.445312 302.246094 L 136.808594 284.558594 C 130.226562 297.332031 126.21875 311.636719 125.472656 326.785156 Z M 234.273438 228.273438 C 249.425781 229.011719 263.726562 233.019531 276.5 239.605469 L 258.820312 270.238281 C 251.292969 266.597656 243.003906 264.308594 234.273438 263.652344 Z M 223.992188 263.652344 L 223.992188 228.273438 C 208.84375 229.011719 194.539062 233.027344 181.765625 239.605469 L 199.449219 270.238281 C 206.972656 266.597656 215.257812 264.308594 223.992188 263.652344 Z M 229.132812 217.863281 C 166.234375 217.863281 115.066406 269.039062 115.066406 331.929688 C 115.066406 334.769531 117.371094 337.066406 120.210938 337.066406 L 165.804688 337.066406 C 168.644531 337.066406 170.945312 334.769531 170.945312 331.929688 C 170.945312 299.84375 197.042969 273.738281 229.132812 273.738281 C 261.214844 273.738281 287.320312 299.847656 287.320312 331.929688 C 287.320312 334.769531 289.621094 337.066406 292.460938 337.066406 L 338.042969 337.066406 C 340.886719 337.066406 343.1875 334.769531 343.1875 331.929688 C 343.1875 269.039062 292.03125 217.863281 229.132812 217.863281 Z M 229.132812 217.863281 " fill-opacity="1" fill-rule="evenodd"/></g></svg>